<?xml version="1.0" encoding="UTF-8" standalone="no"?>
<!DOCTYPE svg PUBLIC "-//W3C//DTD SVG 1.1//EN" "http://www.w3.org/Graphics/SVG/1.1/DTD/svg11.dtd">
<svg version="1.1" xmlns="http://www.w3.org/2000/svg" xmlns:xlink="http://www.w3.org/1999/xlink" preserveAspectRatio="xMidYMid meet" viewBox="0 0 640 640" width="640" height="640"><defs><path d="M267.8 144.64C317.73 144.64 358.2 185.11 358.2 235.04C358.2 308.36 358.2 437.93 358.2 511.25C358.2 561.18 317.73 601.65 267.8 601.65C213.56 601.65 141.24 601.65 87 601.65C37.07 601.65 -3.41 561.18 -3.41 511.25C-3.41 437.93 -3.41 308.36 -3.41 235.04C-3.41 185.11 37.07 144.64 87 144.64C141.24 144.64 213.56 144.64 267.8 144.64Z" id="bhuSq1jke"></path><path d="M624.43 30.57C678.35 30.57 722.07 74.29 722.07 128.22C722.07 203.77 722.07 332.78 722.07 408.33C722.07 462.26 678.35 505.98 624.43 505.98C565.84 505.98 487.72 505.98 429.14 505.98C375.21 505.98 331.49 462.26 331.49 408.33C331.49 332.78 331.49 203.77 331.49 128.22C331.49 74.29 375.21 30.57 429.14 30.57C487.72 30.57 565.84 30.57 624.43 30.57Z" id="b1vJNcrI3V"></path><path d="M599.85 740.21C602.86 750.84 596.69 761.9 586.06 764.91C531.08 780.5 385.38 821.82 330.39 837.41C319.77 840.42 308.71 834.25 305.7 823.62C285.98 754.09 232.28 564.72 212.57 495.19C209.55 484.56 215.73 473.51 226.35 470.49C281.33 454.9 427.04 413.59 482.02 398C492.65 394.98 503.7 401.15 506.72 411.78C526.43 481.32 580.13 670.68 599.85 740.21Z" id="b6tuuat2I"></path><path d="M433.59 -44.14C445.76 -44.14 455.63 -34.27 455.63 -22.09C455.63 25.91 455.63 147.88 455.63 195.89C455.63 208.06 445.76 217.93 433.59 217.93C343.74 217.93 96.26 217.93 6.41 217.93C-5.76 217.93 -15.63 208.06 -15.63 195.89C-15.63 147.88 -15.63 25.91 -15.63 -22.09C-15.63 -34.27 -5.76 -44.14 6.41 -44.14C96.26 -44.14 343.74 -44.14 433.59 -44.14Z" id="bIay0JIC"></path><path d="M541.26 323.45C541.26 376.42 440.06 419.43 315.4 419.43C190.75 419.43 89.54 376.42 89.54 323.45C89.54 270.48 190.75 227.47 315.4 227.47C440.06 227.47 541.26 270.48 541.26 323.45Z" id="cEQrwVmCW"></path><path d="" id="a16OHxrcIY"></path><path d="M47.59 0L434.94 0L434.94 205.06L47.59 205.06L47.59 0Z" id="dkjTknTae"></path><path d="M153.33 205.06L47.59 188.97L153.33 205.06Z" id="c2eSVFlOrE"></path><path d="M55.63 326.9L211.8 481.84L485.52 494.71L575.17 256.21L431.49 185.52L153.33 205.06L55.63 326.9Z" id="bXA5FwQUD"></path><path d="M437.24 185.52L487.82 77.47L575.34 210.69L617.7 275.17L559.08 302.76L611.95 452.18L514.25 418.85L216.55 481.84L40.69 474.02L83.22 355.63L49.89 205.06" id="a2jgmfH6LQ"></path><path d="M67.13 397.23L96.75 474.02L148.01 458.22L178.78 448.74L389.56 488.97L549.07 426.9L586.67 231.49L431.72 185.52" id="dCSFbjyBP"></path><path d="M40.69 474.02L55.63 326.9L47.59 208.51" id="h28dDdd6H"></path><path d="M80.42 267.99C80.42 307.8 51.5 340.11 15.88 340.11C-19.74 340.11 -48.66 307.8 -48.66 267.99C-48.66 228.18 -19.74 195.86 15.88 195.86C51.5 195.86 80.42 228.18 80.42 267.99Z" id="e2uUzREPi"></path><path d="M131.63 419.67C136.38 442.93 129.08 464.08 115.35 466.88C101.62 469.68 86.62 453.08 81.87 429.83C77.13 406.57 84.42 385.42 98.16 382.62C111.89 379.82 126.89 396.42 131.63 419.67Z" id="hbXFP9iOJ"></path><path d="M100.46 460.23L129.2 452.43L85.83 392.88L100.46 460.23Z" id="ccdsvQN74"></path><path d="M586.67 234.32L617.7 151.76L487.47 77.47" id="aVJux9k8E"></path><path d="" id="a1DNs9RRmA"></path><path d="M617.7 152.92L434.94 185.52" id="cubnw59aT"></path><path d="M439.79 185.52L502.58 185.52L487.47 80.83" id="bJMjnd8p"></path><path d="M586.67 227.47L502.58 185.52" id="a26INAryAd"></path><path d="M617.7 152.92L502.58 185.52" id="axlEbZWD4"></path><path d="M47.59 210.21L7.23 276.18L47.59 210.21Z" id="cWeirwiRi"></path><path d="M47.59 208.51L48.16 223.72" id="aLGY9XX6j"></path><path d="M47.59 195.86L47.59 210.21" id="d5ABgnh0D"></path><path d="M55.63 326.3L7.23 276.18" id="aa2lpX5zFJ"></path><path d="M71.56 304.27L7.95 275.82" id="b3Z9W10UYZ"></path><path d="M434.94 185.52L358.2 155.89L47.59 188.97" id="c1xtnvDwOV"></path><path d="M388.73 488.97L391.27 422.83L424.32 472.83L326.9 472.83" id="damn7zEKR"></path><path d="M309.07 472.83L326.9 472.83" id="gck4A49Mb"></path><path d="M315.4 472.83L390.88 422.71" id="aB1o1m2fV"></path><path d="" id="fXR9CkH8O"></path><path d="M664.42 387.95C664.42 425.45 635.24 455.9 599.3 455.9C563.36 455.9 534.18 425.45 534.18 387.95C534.18 350.45 563.36 320 599.3 320C635.24 320 664.42 350.45 664.42 387.95Z" id="c6KgxHMP0"></path></defs><g><g><g><use xlink:href="#bhuSq1jke" opacity="1" fill="#3fd5f1" fill-opacity="1"></use></g><g><use xlink:href="#b1vJNcrI3V" opacity="1" fill="#e11414" fill-opacity="1"></use></g><g><use xlink:href="#b6tuuat2I" opacity="1" fill="#214199" fill-opacity="1"></use></g><g><use xlink:href="#bIay0JIC" opacity="1" fill="#6ce6a4" fill-opacity="1"></use></g><g><use xlink:href="#cEQrwVmCW" opacity="0.81" fill="#000000" fill-opacity="1"></use></g><g><g><use xlink:href="#a16OHxrcIY" opacity="1" fill-opacity="0" stroke="#000000" stroke-width="1" stroke-opacity="1"></use></g></g><g><g><use xlink:href="#dkjTknTae" opacity="0.79" fill-opacity="0" stroke="#000000" stroke-width="3" stroke-opacity="1"></use></g></g><g><g><use xlink:href="#c2eSVFlOrE" opacity="1" fill-opacity="0" stroke="#000000" stroke-width="3" stroke-opacity="1"></use></g></g><g><use xlink:href="#bXA5FwQUD" opacity="1" fill="#b1bacf" fill-opacity="0"></use><g><use xlink:href="#bXA5FwQUD" opacity="1" fill-opacity="0" stroke="#000000" stroke-width="3" stroke-opacity="1"></use></g></g><g><g><use xlink:href="#a2jgmfH6LQ" opacity="1" fill-opacity="0" stroke="#000000" stroke-width="3" stroke-opacity="1"></use></g></g><g><g><use xlink:href="#dCSFbjyBP" opacity="1" fill-opacity="0" stroke="#000000" stroke-width="3" stroke-opacity="1"></use></g></g><g><g><use xlink:href="#h28dDdd6H" opacity="1" fill-opacity="0" stroke="#000000" stroke-width="3" stroke-opacity="1"></use></g></g><g><use xlink:href="#e2uUzREPi" opacity="1" fill="#2cfecf" fill-opacity="0"></use><g><use xlink:href="#e2uUzREPi" opacity="1" fill-opacity="0" stroke="#000000" stroke-width="3" stroke-opacity="1"></use></g></g><g><use xlink:href="#hbXFP9iOJ" opacity="1" fill="#000000" fill-opacity="0"></use><g><use xlink:href="#hbXFP9iOJ" opacity="1" fill-opacity="0" stroke="#000000" stroke-width="3" stroke-opacity="1"></use></g></g><g><g><use xlink:href="#ccdsvQN74" opacity="1" fill-opacity="0" stroke="#000000" stroke-width="3" stroke-opacity="1"></use></g></g><g><g><use xlink:href="#aVJux9k8E" opacity="1" fill-opacity="0" stroke="#000000" stroke-width="3" stroke-opacity="1"></use></g></g><g><g><use xlink:href="#a1DNs9RRmA" opacity="1" fill-opacity="0" stroke="#000000" stroke-width="3" stroke-opacity="1"></use></g></g><g><g><use xlink:href="#cubnw59aT" opacity="1" fill-opacity="0" stroke="#000000" stroke-width="3" stroke-opacity="1"></use></g></g><g><g><use xlink:href="#bJMjnd8p" opacity="1" fill-opacity="0" stroke="#000000" stroke-width="3" stroke-opacity="1"></use></g></g><g><g><use xlink:href="#a26INAryAd" opacity="1" fill-opacity="0" stroke="#000000" stroke-width="3" stroke-opacity="1"></use></g></g><g><g><use xlink:href="#axlEbZWD4" opacity="1" fill-opacity="0" stroke="#000000" stroke-width="3" stroke-opacity="1"></use></g></g><g><g><use xlink:href="#cWeirwiRi" opacity="1" fill-opacity="0" stroke="#000000" stroke-width="3" stroke-opacity="1"></use></g></g><g><g><use xlink:href="#aLGY9XX6j" opacity="1" fill-opacity="0" stroke="#000000" stroke-width="3" stroke-opacity="1"></use></g></g><g><g><use xlink:href="#d5ABgnh0D" opacity="1" fill-opacity="0" stroke="#000000" stroke-width="3" stroke-opacity="1"></use></g></g><g><g><use xlink:href="#aa2lpX5zFJ" opacity="1" fill-opacity="0" stroke="#000000" stroke-width="3" stroke-opacity="1"></use></g></g><g><g><use xlink:href="#b3Z9W10UYZ" opacity="1" fill-opacity="0" stroke="#000000" stroke-width="3" stroke-opacity="1"></use></g></g><g><g><use xlink:href="#c1xtnvDwOV" opacity="1" fill-opacity="0" stroke="#000000" stroke-width="3" stroke-opacity="1"></use></g></g><g><g><use xlink:href="#damn7zEKR" opacity="1" fill-opacity="0" stroke="#000000" stroke-width="2" stroke-opacity="1"></use></g></g><g><g><use xlink:href="#gck4A49Mb" opacity="1" fill-opacity="0" stroke="#000000" stroke-width="2" stroke-opacity="1"></use></g></g><g><g><use xlink:href="#aB1o1m2fV" opacity="1" fill-opacity="0" stroke="#000000" stroke-width="2" stroke-opacity="1"></use></g></g><g><g><use xlink:href="#fXR9CkH8O" opacity="1" fill-opacity="0" stroke="#000000" stroke-width="2" stroke-opacity="1"></use></g></g><g><use xlink:href="#c6KgxHMP0" opacity="1" fill="#d5c6ff" fill-opacity="0"></use><g><use xlink:href="#c6KgxHMP0" opacity="1" fill-opacity="0" stroke="#000000" stroke-width="3" stroke-opacity="1"></use></g></g></g></g></svg>